<?xml version="1.0" encoding="UTF-8"?>
<svg id="Layer_2" data-name="Layer 2" xmlns="http://www.w3.org/2000/svg" xmlns:xlink="http://www.w3.org/1999/xlink" viewBox="0 0 79 79">
  <defs>
    <style>
      .cls-1 {
        fill: #fff;
      }

      .cls-2 {
        fill: #39abd4;
        filter: url(#drop-shadow-1);
      }
    </style>
    <filter id="drop-shadow-1" filterUnits="userSpaceOnUse">
      <feOffset dx="1" dy="1"/>
      <feGaussianBlur result="blur" stdDeviation="5"/>
      <feFlood flood-color="#17375b" flood-opacity=".75"/>
      <feComposite in2="blur" operator="in"/>
      <feComposite in="SourceGraphic"/>
    </filter>
  </defs>
  <g id="Layer_1-2" data-name="Layer 1">
    <g>
      <rect class="cls-2" x="14" y="14" width="49" height="49" rx="7.38" ry="7.38"/>
      <g>
        <g>
          <polygon class="cls-1" points="43.46 33.94 43.03 33.5 44.44 32.09 47.39 32.09 47.39 32.71 44.69 32.71 43.46 33.94"/>
          <path class="cls-1" d="m48.02,33.38c-.54,0-.98-.44-.98-.98s.44-.98.98-.98.98.44.98.98-.44.98-.98.98Zm0-1.35c-.2,0-.37.17-.37.37s.17.37.37.37.37-.17.37-.37-.17-.37-.37-.37Z"/>
          <polygon class="cls-1" points="33.54 33.94 32.31 32.71 29.61 32.71 29.61 32.09 32.56 32.09 33.97 33.5 33.54 33.94"/>
          <path class="cls-1" d="m28.98,33.38c-.54,0-.98-.44-.98-.98s.44-.98.98-.98.98.44.98.98-.44.98-.98.98Zm0-1.35c-.2,0-.37.17-.37.37s.17.37.37.37.37-.17.37-.37-.17-.37-.37-.37Z"/>
          <polygon class="cls-1" points="47.39 44.91 44.44 44.91 43.03 43.5 43.46 43.06 44.69 44.29 47.39 44.29 47.39 44.91"/>
          <path class="cls-1" d="m48.02,45.59c-.54,0-.98-.44-.98-.98s.44-.98.98-.98.98.44.98.98-.44.98-.98.98Zm0-1.35c-.2,0-.37.17-.37.37s.17.37.37.37.37-.17.37-.37-.17-.37-.37-.37Z"/>
          <polygon class="cls-1" points="32.56 44.91 29.61 44.91 29.61 44.29 32.31 44.29 33.54 43.06 33.97 43.5 32.56 44.91"/>
          <path class="cls-1" d="m28.98,45.59c-.54,0-.98-.44-.98-.98s.44-.98.98-.98.98.44.98.98-.44.98-.98.98Zm0-1.35c-.2,0-.37.17-.37.37s.17.37.37.37.37-.17.37-.37-.17-.37-.37-.37Z"/>
          <path class="cls-1" d="m48.02,39.48c-.54,0-.98-.44-.98-.98s.44-.98.98-.98.98.44.98.98-.44.98-.98.98Zm0-1.35c-.2,0-.37.17-.37.37s.17.37.37.37.37-.17.37-.37-.17-.37-.37-.37Z"/>
          <rect class="cls-1" x="45.22" y="38.19" width="2.12" height=".62"/>
          <path class="cls-1" d="m38.5,29.97c-.54,0-.98-.44-.98-.98s.44-.98.98-.98.98.44.98.98-.44.98-.98.98Zm0-1.35c-.2,0-.37.17-.37.37s.17.37.37.37.37-.17.37-.37-.17-.37-.37-.37Z"/>
          <rect class="cls-1" x="38.19" y="29.66" width=".62" height="2.12"/>
          <path class="cls-1" d="m28.98,39.48c-.54,0-.98-.44-.98-.98s.44-.98.98-.98.98.44.98.98-.44.98-.98.98Zm0-1.35c-.2,0-.37.17-.37.37s.17.37.37.37.37-.17.37-.37-.17-.37-.37-.37Z"/>
          <rect class="cls-1" x="29.66" y="38.19" width="2.12" height=".62"/>
          <path class="cls-1" d="m38.5,49c-.54,0-.98-.44-.98-.98s.44-.98.98-.98.98.44.98.98-.44.98-.98.98Zm0-1.35c-.2,0-.37.17-.37.37s.17.37.37.37.37-.17.37-.37-.17-.37-.37-.37Z"/>
          <rect class="cls-1" x="38.19" y="45.22" width=".62" height="2.12"/>
        </g>
        <g>
          <ellipse class="cls-1" cx="38.5" cy="35.59" rx="4.63" ry="1.26"/>
          <path class="cls-1" d="m41.87,36.85c-.91.25-2.1.38-3.37.38s-2.47-.14-3.37-.38c-.57-.15-.98-.34-1.26-.56v1.26c0,.7,2.07,1.26,4.63,1.26s4.63-.57,4.63-1.26v-1.26c-.27.22-.69.41-1.26.56Zm-4.4,1.49c-.15,0-.27-.12-.27-.27s.12-.27.27-.27.27.12.27.27-.12.27-.27.27Zm1.03,0c-.15,0-.27-.12-.27-.27s.12-.27.27-.27.27.12.27.27-.12.27-.27.27Zm1.03,0c-.15,0-.27-.12-.27-.27s.12-.27.27-.27.27.12.27.27-.12.27-.27.27Z"/>
          <path class="cls-1" d="m41.87,38.78c-.91.25-2.1.38-3.37.38s-2.47-.14-3.37-.38c-.57-.15-.98-.34-1.26-.56v1.26c0,.7,2.07,1.26,4.63,1.26s4.63-.57,4.63-1.26v-1.26c-.27.22-.69.41-1.26.56Zm-4.4,1.46c-.15,0-.27-.12-.27-.27s.12-.27.27-.27.27.12.27.27-.12.27-.27.27Zm1.03,0c-.15,0-.27-.12-.27-.27s.12-.27.27-.27.27.12.27.27-.12.27-.27.27Zm1.03,0c-.15,0-.27-.12-.27-.27s.12-.27.27-.27.27.12.27.27-.12.27-.27.27Z"/>
          <path class="cls-1" d="m41.87,40.71c-.91.25-2.1.38-3.37.38s-2.47-.14-3.37-.38c-.57-.15-.98-.34-1.26-.56v1.26c0,.7,2.07,1.26,4.63,1.26s4.63-.57,4.63-1.26v-1.26c-.27.22-.69.41-1.26.56Zm-4.4,1.43c-.15,0-.27-.12-.27-.27s.12-.27.27-.27.27.12.27.27-.12.27-.27.27Zm1.03,0c-.15,0-.27-.12-.27-.27s.12-.27.27-.27.27.12.27.27-.12.27-.27.27Zm1.03,0c-.15,0-.27-.12-.27-.27s.12-.27.27-.27.27.12.27.27-.12.27-.27.27Z"/>
        </g>
        <polygon class="cls-1" points="39.35 31.66 38.5 32.52 37.65 31.66 39.35 31.66"/>
        <polygon class="cls-1" points="34.27 33.06 34.27 34.27 33.06 34.27 34.27 33.06"/>
        <polygon class="cls-1" points="31.66 37.65 32.52 38.5 31.66 39.35 31.66 37.65"/>
        <polygon class="cls-1" points="33.06 42.73 34.27 42.73 34.27 43.94 33.06 42.73"/>
        <polygon class="cls-1" points="37.65 45.34 38.5 44.48 39.35 45.34 37.65 45.34"/>
        <polygon class="cls-1" points="42.73 43.94 42.73 42.73 43.94 42.73 42.73 43.94"/>
        <polygon class="cls-1" points="45.34 39.35 44.48 38.5 45.34 37.65 45.34 39.35"/>
        <polygon class="cls-1" points="43.94 34.27 42.73 34.27 42.73 33.06 43.94 34.27"/>
      </g>
    </g>
  </g>
</svg>