<?xml version="1.0" encoding="UTF-8"?>
<svg id="Layer_2" data-name="Layer 2" xmlns="http://www.w3.org/2000/svg" xmlns:xlink="http://www.w3.org/1999/xlink" viewBox="0 0 79 79">
  <defs>
    <style>
      .cls-1 {
        fill: #fff;
      }

      .cls-2 {
        fill: #39abd4;
        filter: url(#drop-shadow-1);
      }
    </style>
    <filter id="drop-shadow-1" filterUnits="userSpaceOnUse">
      <feOffset dx="1" dy="1"/>
      <feGaussianBlur result="blur" stdDeviation="5"/>
      <feFlood flood-color="#17375b" flood-opacity=".75"/>
      <feComposite in2="blur" operator="in"/>
      <feComposite in="SourceGraphic"/>
    </filter>
  </defs>
  <g id="Layer_1-2" data-name="Layer 1">
    <g>
      <rect class="cls-2" x="14" y="14" width="49" height="49" rx="7.38" ry="7.38"/>
      <path class="cls-1" d="m35.9,44.89c-1.48-.25-2.82-.92-3.9-1.88.04-1.24,1.47-2.04,3.25-2.38v-1.31c-1.93.33-3.66,1.16-4.29,2.55-.85-1.14-1.4-2.51-1.53-4.01h7.12v.02c.37-.5.82-.94,1.32-1.32h-.02v-1.32c2.42-.13,4.82-.99,5.59-2.69.73.97,1.23,2.12,1.44,3.36h1.32c-.63-4.41-4.42-7.8-9.01-7.8-5.03,0-9.11,4.08-9.11,9.11,0,4.59,3.39,8.38,7.8,9.01v-1.32Zm-6.47-8.34c.12-1.5.68-2.88,1.53-4.02.34.74.99,1.37,1.93,1.84.99.49,2.28.78,3.66.85v1.33h-7.12Zm7.12-2.62c-2.33-.14-4.5-1-4.55-2.53,1.23-1.1,2.81-1.82,4.55-1.97v4.5Zm1.3,0v-4.5c1.74.14,3.32.86,4.55,1.97-.05,1.53-2.22,2.4-4.55,2.53Zm8.01,11.01c.69-.88,1.1-1.98,1.1-3.19,0-2.87-2.33-5.2-5.2-5.2s-5.2,2.33-5.2,5.2,2.33,5.2,5.2,5.2c1.2,0,2.3-.41,3.19-1.1l2.86,2.86c.13.13.29.19.46.19s.33-.06.46-.19c.25-.25.25-.67,0-.92l-2.86-2.86Zm-4.1.72c-2.15,0-3.9-1.75-3.9-3.9s1.75-3.9,3.9-3.9,3.9,1.75,3.9,3.9-1.75,3.9-3.9,3.9Zm-2.6-3.25c-.36,0-.65-.29-.65-.65,0-1.79,1.46-3.25,3.25-3.25.36,0,.65.29.65.65s-.29.65-.65.65c-1.08,0-1.95.88-1.95,1.95,0,.36-.29.65-.65.65Z"/>
    </g>
  </g>
</svg>