<?xml version="1.0" encoding="UTF-8"?>
<svg id="Layer_2" data-name="Layer 2" xmlns="http://www.w3.org/2000/svg" xmlns:xlink="http://www.w3.org/1999/xlink" viewBox="0 0 79 79">
  <defs>
    <style>
      .cls-1 {
        fill: #fff;
      }

      .cls-2 {
        fill: #39abd4;
        filter: url(#drop-shadow-1);
      }
    </style>
    <filter id="drop-shadow-1" filterUnits="userSpaceOnUse">
      <feOffset dx="1" dy="1"/>
      <feGaussianBlur result="blur" stdDeviation="5"/>
      <feFlood flood-color="#17375b" flood-opacity=".75"/>
      <feComposite in2="blur" operator="in"/>
      <feComposite in="SourceGraphic"/>
    </filter>
  </defs>
  <g id="Layer_1-2" data-name="Layer 1">
    <g>
      <rect class="cls-2" x="14" y="14" width="49" height="49" rx="7.38" ry="7.38"/>
      <path class="cls-1" d="m30.11,31.04c.04.45.27.84.61,1.09l-1.76,7.12c-.67.12-1.16.74-1.1,1.43.06.74.71,1.3,1.46,1.24.24-.02.46-.11.65-.23l5.78,3.82c-.03.15-.03.3-.02.45.08.98.93,1.7,1.91,1.62.87-.07,1.54-.76,1.62-1.6l7.23-2.3c.3.38.77.62,1.29.57.81-.07,1.42-.78,1.35-1.6-.05-.64-.51-1.15-1.1-1.31l-.11-3.86c.56-.25.93-.83.88-1.47-.07-.81-.78-1.42-1.6-1.35-.29.02-.55.13-.77.29l-3.26-1.79c.04-.16.05-.34.03-.51-.08-.95-.91-1.65-1.85-1.57-.53.04-.98.32-1.26.72l-7.04-1.28c-.19-.68-.84-1.16-1.57-1.1-.83.07-1.44.79-1.38,1.62Zm9.76,2.31l-4.26,2.7c-.26-.17-.58-.26-.91-.23-.05,0-.09.01-.13.02l-1.88-3.87c.14-.15.25-.32.33-.51l6.77,1.23c0,.08,0,.16,0,.24.01.15.04.29.09.42Zm1.46,4.59c-.28.08-.52.25-.7.46l-4.33-1.07c0-.05,0-.11,0-.16-.01-.14-.04-.27-.09-.4l4.2-2.66c.19.15.4.27.64.33l.28,3.5Zm5.78,3.46c-.14.06-.27.14-.39.23l-3.49-2.15c0-.08,0-.16,0-.24-.05-.59-.44-1.08-.97-1.27l-.29-3.53c.29-.09.55-.25.75-.46l3.17,1.74c-.05.17-.07.35-.05.53.05.66.53,1.18,1.14,1.32l.11,3.83Zm-5.7-.61c.15.04.31.05.47.04.39-.03.74-.22.98-.49l3.36,2.08c-.03.12-.04.24-.04.37l-7.09,2.25c-.09-.19-.21-.35-.35-.5l2.67-3.75Zm-5.66-2.35c.08-.07.16-.15.23-.23l4.31,1.06c0,.06,0,.13,0,.2.03.31.15.59.33.82l-2.7,3.79c-.17-.04-.35-.06-.53-.05l-1.64-5.6Zm-5.21,1.9l3.29-1.96c.28.25.64.39,1.04.38l1.63,5.57c-.13.09-.25.19-.35.31l-5.64-3.73c.04-.15.06-.3.05-.47,0-.04-.01-.07-.02-.11Zm1.07-7.93s.08,0,.12,0c.04,0,.08,0,.12-.02l1.89,3.89c-.28.29-.43.7-.4,1.13,0,.06.01.11.02.17l-3.28,1.95c-.06-.05-.13-.1-.19-.14l1.72-6.98Z"/>
    </g>
  </g>
</svg>