<?xml version="1.0" encoding="UTF-8"?>
<svg id="Layer_2" data-name="Layer 2" xmlns="http://www.w3.org/2000/svg" viewBox="0 0 15.19 24.39">
  <defs>
    <style>
      .cls-1 {
        fill: #fff;
      }
    </style>
  </defs>
  <g id="Layer_1-2" data-name="Layer 1">
    <g>
      <path class="cls-1" d="m3.27,15.32l3.74,3.09c.35.29.8.29,1.15,0l3.74-3.09c1.4-1.16,3.28.09,3.28,2.17h0c0,.87-.35,1.69-.94,2.17l-4.95,4.08c-1.04.85-2.38.85-3.42,0L.94,19.66C.35,19.18,0,18.36,0,17.49h0c0-2.08,1.88-3.33,3.27-2.17Z"/>
      <path class="cls-1" d="m3.27,9.07l3.74-3.09c.35-.29.8-.29,1.15,0l3.74,3.09c1.4,1.16,3.28-.09,3.28-2.17h0c0-.87-.35-1.69-.94-2.17L9.3.64c-1.04-.85-2.38-.85-3.42,0L.94,4.73C.35,5.21,0,6.02,0,6.9h0c0,2.08,1.88,3.33,3.27,2.17Z"/>
    </g>
  </g>
</svg>